<svg width="34" height="34" viewBox="0 0 34 34" fill="none" xmlns="http://www.w3.org/2000/svg">
<path fill-rule="evenodd" clip-rule="evenodd" d="M12.4428 10.732L12.435 10.6066C12.435 10.0968 12.8165 9.6761 13.3096 9.6144L13.435 9.60661H23.3345L23.3949 9.60842L23.4819 9.61738L23.6112 9.64537L23.7287 9.68729L23.8282 9.73676L23.9532 9.82088L24.0416 9.8995L24.0929 9.95467L24.1693 10.0557L24.2272 10.1554L24.2747 10.265L24.3066 10.3709L24.3286 10.4971L24.3345 10.6066L24.3345 20.5061C24.3345 21.0584 23.8868 21.5061 23.3345 21.5061C22.8247 21.5061 22.404 21.1246 22.3423 20.6315L22.3345 20.5061L22.3333 13.0221L11.3137 24.0416C10.9232 24.4322 10.29 24.4322 9.8995 24.0416C9.50898 23.6511 9.50898 23.0179 9.8995 22.6274L20.9205 11.6065L13.435 11.6066C12.9252 11.6066 12.5045 11.2251 12.4428 10.732L12.435 10.6066L12.4428 10.732Z" fill="white"/>
</svg>
