<svg width="100" height="100" viewBox="0 0 100 100" fill="none" xmlns="http://www.w3.org/2000/svg">
<g filter="url(#filter0_d_1_161)">
<path fill-rule="evenodd" clip-rule="evenodd" d="M46 62C52.6274 62 58 56.6274 58 50C58 43.3726 52.6274 38 46 38C39.3726 38 34 43.3726 34 50C34 56.6274 39.3726 62 46 62Z" fill="#CDBFFD"/>
<path fill-rule="evenodd" clip-rule="evenodd" d="M46 62C52.6274 62 58 56.6274 58 50C58 43.3726 52.6274 38 46 38C39.3726 38 34 43.3726 34 50C34 56.6274 39.3726 62 46 62Z" stroke="black"/>
<path fill-rule="evenodd" clip-rule="evenodd" d="M46 62C52.6274 62 58 56.6274 58 50C58 43.3726 52.6274 38 46 38C39.3726 38 34 43.3726 34 50C34 56.6274 39.3726 62 46 62Z" stroke="black" stroke-opacity="0.2"/>
</g>
<path d="M44.3984 53.8242L41.1367 50.582C41.0456 50.4909 41 50.3737 41 50.2305C41 50.0872 41.0456 49.9701 41.1367 49.8789L41.8594 49.1758C41.9505 49.0716 42.0645 49.0195 42.2012 49.0195C42.3379 49.0195 42.4583 49.0716 42.5625 49.1758L44.75 51.3633L49.4375 46.6758C49.5416 46.5716 49.6621 46.5195 49.7988 46.5195C49.9355 46.5195 50.0495 46.5716 50.1406 46.6758L50.8633 47.3789C50.9544 47.4701 51 47.5873 51 47.7305C51 47.8737 50.9544 47.9909 50.8633 48.082L45.1016 53.8242C45.0104 53.9284 44.8932 53.9805 44.75 53.9805C44.6068 53.9805 44.4896 53.9284 44.3984 53.8242Z" fill="#010E16"/>
<defs>
<filter id="filter0_d_1_161" x="29.5" y="37.5" width="33" height="33" filterUnits="userSpaceOnUse" color-interpolation-filters="sRGB">
<feFlood flood-opacity="0" result="BackgroundImageFix"/>
<feColorMatrix in="SourceAlpha" type="matrix" values="0 0 0 0 0 0 0 0 0 0 0 0 0 0 0 0 0 0 127 0" result="hardAlpha"/>
<feOffset dy="4"/>
<feGaussianBlur stdDeviation="2"/>
<feComposite in2="hardAlpha" operator="out"/>
<feColorMatrix type="matrix" values="0 0 0 0 0 0 0 0 0 0 0 0 0 0 0 0 0 0 0.25 0"/>
<feBlend mode="normal" in2="BackgroundImageFix" result="effect1_dropShadow_1_161"/>
<feBlend mode="normal" in="SourceGraphic" in2="effect1_dropShadow_1_161" result="shape"/>
</filter>
</defs>
</svg>
