<svg width="64" height="72" viewBox="0 0 64 72" fill="none" xmlns="http://www.w3.org/2000/svg">
<path d="M0 0H25.03C32.8584 0 39.691 1.44206 45.5279 4.32619C51.3648 7.21031 55.8627 11.3305 59.0215 16.6867C62.1803 22.0429 63.7597 28.3605 63.7597 35.6395C63.7597 47.588 60.2575 56.6524 53.2532 62.8326C46.3176 68.9442 36.6352 72 24.206 72H0V0ZM25.03 58.9185C32.3777 58.9185 38.0086 56.8584 41.9227 52.7382C45.8369 48.618 47.794 42.9185 47.794 35.6395C47.794 31.3133 46.9356 27.4335 45.2189 24C43.5021 20.5665 40.9957 17.8884 37.6996 15.9657C34.4034 14.0429 30.5236 13.0815 26.0601 13.0815H15.6567V58.9185H25.03Z" fill="#E1D7FE"/>
</svg>
