<svg width="24" height="24" viewBox="0 0 24 24" fill="none" xmlns="http://www.w3.org/2000/svg">
<g clip-path="url(#clip0_1_150)">
<path d="M11 12H21" stroke="#E1D7FE" stroke-width="1.5" stroke-linecap="round" stroke-linejoin="round"/>
<path d="M17.9998 8.99998L20.9998 12L17.9998 15" stroke="#E1D7FE" stroke-width="1.5" stroke-linecap="round" stroke-linejoin="round"/>
<path d="M6.99982 11.9999C6.99982 12.5304 6.7891 13.0391 6.41403 13.4141C6.03896 13.7892 5.53025 13.9999 4.99982 13.9999C4.46938 13.9999 3.96068 13.7892 3.5856 13.4141C3.21053 13.0391 2.99982 12.5304 2.99982 11.9999C2.99982 11.4695 3.21053 10.9608 3.5856 10.5857C3.96068 10.2106 4.46938 9.99993 4.99982 9.99993C5.53025 9.99993 6.03896 10.2106 6.41403 10.5857C6.7891 10.9608 6.99982 11.4695 6.99982 11.9999Z" stroke="#E1D7FE" stroke-width="1.5" stroke-linecap="round" stroke-linejoin="round"/>
</g>
<defs>
<clipPath id="clip0_1_150">
<rect width="24" height="24" fill="white"/>
</clipPath>
</defs>
</svg>
