<svg width="24" height="24" viewBox="0 0 24 24" fill="none" xmlns="http://www.w3.org/2000/svg">
<g clip-path="url(#clip0_1_134)">
<path d="M11 6.00005C11 6.7957 11.5268 7.55876 12.4645 8.12137C13.4021 8.68398 14.6739 9.00005 16 9.00005C17.3261 9.00005 18.5979 8.68398 19.5355 8.12137C20.4732 7.55876 21 6.7957 21 6.00005C21 5.2044 20.4732 4.44133 19.5355 3.87873C18.5979 3.31612 17.3261 3.00005 16 3.00005C14.6739 3.00005 13.4021 3.31612 12.4645 3.87873C11.5268 4.44133 11 5.2044 11 6.00005Z" stroke="#E1D7FE" stroke-width="1.5" stroke-linecap="round" stroke-linejoin="round"/>
<path d="M11 6.00005V10C11 11.657 13.239 13 16 13C18.761 13 21 11.657 21 10V6.00005" stroke="#E1D7FE" stroke-width="1.5" stroke-linecap="round" stroke-linejoin="round"/>
<path d="M11 10V14C11 15.657 13.239 17 16 17C18.761 17 21 15.657 21 14V10" stroke="#E1D7FE" stroke-width="1.5" stroke-linecap="round" stroke-linejoin="round"/>
<path d="M11 14.0001V18.0001C11 19.6571 13.239 21.0001 16 21.0001C18.761 21.0001 21 19.6571 21 18.0001V14.0001" stroke="#E1D7FE" stroke-width="1.5" stroke-linecap="round" stroke-linejoin="round"/>
<path d="M6.99982 9.00005H4.49982C4.10199 9.00005 3.72046 9.15808 3.43916 9.43939C3.15785 9.72069 2.99982 10.1022 2.99982 10.5C2.99982 10.8979 3.15785 11.2794 3.43916 11.5607C3.72046 11.842 4.10199 12 4.49982 12H5.49982C5.89764 12 6.27917 12.1581 6.56048 12.4394C6.84178 12.7207 6.99982 13.1022 6.99982 13.5C6.99982 13.8979 6.84178 14.2794 6.56048 14.5607C6.27917 14.842 5.89764 15 5.49982 15H2.99982" stroke="#E1D7FE" stroke-width="1.5" stroke-linecap="round" stroke-linejoin="round"/>
<path d="M5 15.0001V16.0001M5 8.00009V9.00009" stroke="#E1D7FE" stroke-width="1.5" stroke-linecap="round" stroke-linejoin="round"/>
</g>
<defs>
<clipPath id="clip0_1_134">
<rect width="24" height="24" fill="white"/>
</clipPath>
</defs>
</svg>
